<svg preserveAspectRatio="none" overflow="visible" style="display: block;" width="42.6377" height="61.2857" viewBox="0 0 42.6377 61.2857" fill="none" xmlns="http://www.w3.org/2000/svg">
<g id="Group 2085664879" filter="url(#filter0_d_0_258)">
<path id="Vector" d="M40.4492 25.1598C40.4492 24.1209 39.6068 23.2793 38.5688 23.2793C37.5299 23.2793 36.6883 24.1209 36.6883 25.1598C36.6883 33.6344 29.7934 40.5292 21.3188 40.5292C12.8442 40.5292 5.9494 33.6344 5.9494 25.1598C5.9494 24.1209 5.107 23.2793 4.06892 23.2793C3.03009 23.2793 2.18844 24.1209 2.18844 25.1598C2.18844 35.0736 9.76928 43.2491 19.4391 44.1972V48.0103C16.995 48.1002 14.7292 48.3654 12.9205 48.7802C11.6173 49.0786 8.15475 49.8719 8.15475 52.4422C8.15475 55.0124 11.6173 55.805 12.9205 56.1041C15.1856 56.6232 18.1683 56.9088 21.3196 56.9088C24.4708 56.9088 27.4536 56.6232 29.7187 56.1041C31.0219 55.8057 34.4844 55.0124 34.4844 52.4422C34.4844 49.8719 31.0219 49.0794 29.7187 48.7802C27.9107 48.3654 25.6442 48.1002 23.2001 48.0103V44.1972C32.8676 43.2491 40.4492 35.0736 40.4492 25.1598ZM21.3181 53.1471C17.9946 53.1471 15.4356 52.8169 13.772 52.4422C15.4356 52.0667 17.9946 51.7373 21.3181 51.7373C24.6416 51.7373 27.2005 52.0674 28.8642 52.4422C27.2013 52.8169 24.6416 53.1471 21.3181 53.1471Z" fill="url(#paint0_radial_0_258)"/>
<path id="Vector_2" d="M18.5352 34.9123H24.3602C28.5933 34.9123 32.037 31.4687 32.037 27.2355V7.67678C32.037 3.44364 28.5933 0 24.3602 0H18.5352C14.302 0 10.8584 3.44364 10.8584 7.67678V27.2355C10.8584 31.4687 14.302 34.9123 18.5352 34.9123ZM14.6201 7.67678C14.6201 5.51752 16.3766 3.76095 18.5359 3.76095H24.3609C26.5202 3.76095 28.2768 5.51752 28.2768 7.67678V27.2355C28.2768 29.3948 26.5202 31.1514 24.3609 31.1514H18.5359C16.3766 31.1514 14.6201 29.3948 14.6201 27.2355V7.67678Z" fill="url(#paint1_radial_0_258)"/>
</g>
<defs>
<filter id="filter0_d_0_258" x="0" y="0" width="42.6377" height="61.2857" filterUnits="userSpaceOnUse" color-interpolation-filters="sRGB">
<feFlood flood-opacity="0" result="BackgroundImageFix"/>
<feColorMatrix in="SourceAlpha" type="matrix" values="0 0 0 0 0 0 0 0 0 0 0 0 0 0 0 0 0 0 127 0" result="hardAlpha"/>
<feOffset dy="2.18844"/>
<feGaussianBlur stdDeviation="1.09422"/>
<feComposite in2="hardAlpha" operator="out"/>
<feColorMatrix type="matrix" values="0 0 0 0 0 0 0 0 0 0 0 0 0 0 0 0 0 0 0.25 0"/>
<feBlend mode="normal" in2="BackgroundImageFix" result="effect1_dropShadow_0_258"/>
<feBlend mode="normal" in="SourceGraphic" in2="effect1_dropShadow_0_258" result="shape"/>
</filter>
<radialGradient id="paint0_radial_0_258" cx="0" cy="0" r="1" gradientTransform="matrix(-34.4384 20.1224 -34.0517 -20.3509 3.57366 27.9465)" gradientUnits="userSpaceOnUse">
<stop stop-color="#8CDFF4"/>
<stop offset="1" stop-color="#3071E1"/>
</radialGradient>
<radialGradient id="paint1_radial_0_258" cx="0" cy="0" r="1" gradientTransform="matrix(-19.0628 20.89 -18.8487 -21.1273 11.6251 4.84527)" gradientUnits="userSpaceOnUse">
<stop stop-color="#8CDFF4"/>
<stop offset="1" stop-color="#3071E1"/>
</radialGradient>
</defs>
</svg>
